<svg width="164" height="164" viewBox="0 0 164 164" fill="none" xmlns="http://www.w3.org/2000/svg" role="img" aria-labelledby="logoTitle logoDesc">
  <title id="logoTitle">MemoMusic treble clef logo</title>
  <desc id="logoDesc">Minimal treble clef silhouette with gradient fill and subtle glow.</desc>
  <defs>
    <linearGradient id="clefStroke" x1="36" y1="18" x2="128" y2="152" gradientUnits="userSpaceOnUse">
      <stop offset="0" stop-color="#EC4899" />
      <stop offset="0.5" stop-color="#6366F1" />
      <stop offset="1" stop-color="#22D3EE" />
    </linearGradient>
    <linearGradient id="clefFill" x1="42" y1="26" x2="120" y2="148" gradientUnits="userSpaceOnUse">
      <stop offset="0" stop-color="rgba(15, 23, 42, 0.05)" />
      <stop offset="1" stop-color="rgba(15, 23, 42, 0.4)" />
    </linearGradient>
    <radialGradient id="halo" cx="0" cy="0" r="1" gradientUnits="userSpaceOnUse" gradientTransform="translate(82 130) rotate(90) scale(60)">
      <stop offset="0" stop-color="#6366F1" stop-opacity="0.4" />
      <stop offset="1" stop-color="#0B1220" stop-opacity="0" />
    </radialGradient>
    <filter id="softGlow" x="-12" y="-12" width="188" height="188" filterUnits="userSpaceOnUse" color-interpolation-filters="sRGB">
      <feGaussianBlur stdDeviation="7" result="blur" />
      <feFlood flood-color="#6366F1" flood-opacity="0.3" />
      <feComposite in2="blur" operator="in" />
      <feComposite in="SourceGraphic" />
    </filter>
  </defs>
  <g filter="url(#softGlow)">
    <circle cx="82" cy="124" r="60" fill="url(#halo)" />
    <path
      d="M94.2 20c-20.8 0-35 12.4-35 30.5 0 13.8 9.8 24.9 24.8 28.2-13.8 8-20.7 17.9-20.7 31.9 0 17.7 14.2 32.1 34.1 32.1 18.6 0 32.5-10.6 32.5-26.3 0-12.4-7.8-21.4-19.6-24.1v-15.8c16-5.4 24.8-18.4 24.8-34.5C135.1 33.6 120.4 20 94.2 20Zm2.6 12.3c14.2 0 22.8 7 22.8 17.8 0 10.3-7 18.1-18.2 21l-1.9 0.5c-2 0.5-3.3 2.1-3.3 4.2v19c0 2.1 1.4 3.7 3.5 4.1 9 1.8 14.7 7.7 14.7 15.6 0 9.6-7.9 15.9-18.1 15.9-12 0-20.4-8.3-20.4-20.2 0-9.5 6.5-16.2 17.6-18.2 2.2-0.4 3.6-2.1 3.6-4.3V83.6c0-2.1-1.4-3.8-3.6-4.3-11.9-2.3-19.6-9.6-19.6-20.6 0-11 8.5-15.7 22.9-15.7Z"
      fill="url(#clefFill)"
      stroke="url(#clefStroke)"
      stroke-width="7"
      stroke-linecap="round"
      stroke-linejoin="round"
    />
  </g>
</svg>
